<svg width="242" height="286" viewBox="0 0 242 286" fill="none" xmlns="http://www.w3.org/2000/svg">
<path d="M213.672 81.4466C213.672 81.4466 209.703 62.427 202.841 57.031C198.702 53.7767 77.544 51.7229 46.1291 56.5142C40.5027 57.3723 35.6063 74.9518 35.25 75.6744C39.8074 104.77 52.4919 142.034 73.75 152.492C89.7109 160.343 112.722 165.098 130.687 163.918C153.083 162.448 169.515 151.965 183.821 139.922C204.35 122.641 213.672 81.4466 213.672 81.4466ZM90.4762 266.952C83.1579 248.025 68.6056 212.591 67.8275 211.803C66.6572 210.618 66.0762 214.497 64.2571 235.642C62.3244 258.108 62.1515 259.115 60.231 259.115C57.7285 259.115 58.5953 262.396 62.3444 267.115C68.3613 274.689 75.3116 278.009 85.25 278.056C96.8776 278.476 93.6363 275.516 90.4762 266.952ZM171.321 275.734C176.653 273.252 175.944 272.968 180.146 267.128C186.447 258.37 182.634 260.01 182.634 260.01C180.717 259.282 177.358 243.186 175.028 234.686C173.069 227.541 174.483 229.725 169.673 213.115C161.739 234.267 156.88 246.011 149.788 266.96C145.576 278.508 147.568 277.831 158.75 277.989C164.688 278.073 167.306 277.604 171.321 275.734Z" fill="#FAFDFD"/>
<path d="M38.75 48.5743C38.75 54.0802 47.0581 59.7421 60.75 63.567C66.7434 65.2413 74.7538 65.1577 105.25 63.1026C123.126 61.8981 148.099 62.3769 165.75 64.2627C174.558 65.2037 177.464 65.1318 183.784 63.8167C193.01 61.8969 201.72 58.7137 205.167 56.002C211.337 51.1483 206.542 39.7594 192.332 25.5181C179.344 12.5021 157.496 2.71021 136.75 0.606865C121.24 -0.96557 101.252 3.5514 87.1039 11.8259C83.5403 13.9101 79.197 16.398 77.4522 17.3545C75.7073 18.3111 71.8347 21.2361 68.8464 23.8545C62.3603 29.5378 59.471 31.5226 50.3067 36.59C41.6976 41.3505 38.75 44.4072 38.75 48.5743Z" fill="url(#paint0_radial_5_207)"/>
<path fill-rule="evenodd" clip-rule="evenodd" d="M51.7818 275.667C54.1091 279.433 61.7707 283.646 68.7951 285.023C76.6409 286.409 123.744 286.689 110.742 275.645C104.676 273.856 104.35 273.197 108.232 270.563C109.967 269.386 111.664 267.691 113.504 265.855C115.042 264.319 116.679 262.685 118.519 261.172C118.779 260.958 119.014 260.759 119.229 260.577C121.451 258.698 121.568 258.599 125.403 262.153C128.069 264.625 131.487 267.604 133 268.775C133.49 269.391 133.936 269.916 134.322 270.37C136.563 273.007 136.758 273.237 131.642 274.805C119.813 282.645 149.682 285.696 157.289 285.252C165.29 285.189 175.765 283.454 183.206 277.749C184.405 276.492 191.851 265.858 193.28 261.277C193.313 261.171 193.345 261.066 193.377 260.964C194.187 258.321 194.67 256.744 205.291 254.064C220.092 250.328 224.877 248.93 230.138 243.107C234.967 237.762 237.122 232.616 239.834 219.95C241.714 211.171 242.299 196.474 241.792 185.325C240.296 159.305 232.61 137.387 224.424 114.043C220.771 103.625 217.018 92.9235 213.671 81.4467C213.671 81.4467 204.35 122.641 183.821 139.922C169.515 151.965 153.083 162.448 130.687 163.918C112.722 165.098 89.7107 160.343 73.7498 152.492C52.4917 142.034 39.8072 104.77 35.2498 75.6744C34.6939 77.131 34.1527 78.5476 33.6225 79.9354C30.3874 88.4029 27.5632 95.795 24.3273 104.615C22.415 109.954 20.6025 114.855 18.8885 119.49C10.8163 141.318 4.9282 157.24 1.07779 185.115C0.0434477 202.306 5.11942 220.605 14.4306 233.254C24.0069 246.262 29.2689 250.776 40.2651 255.413L46.0358 257.846L47.873 265.081C48.8835 269.06 50.6424 273.824 51.7818 275.667ZM67.8273 211.803C68.6054 212.591 83.1577 248.025 90.476 266.952C90.9507 268.239 91.4273 269.399 91.8551 270.44C94.2744 276.329 95.1305 278.413 85.2498 278.056C75.3114 278.009 68.3611 274.689 62.3442 267.115C58.5951 262.396 57.7283 259.115 60.2308 259.115C62.1513 259.115 62.3242 258.108 64.2569 235.642C66.076 214.497 66.657 210.618 67.8273 211.803ZM178.137 270.012C175.987 273.167 175.593 273.745 171.321 275.735C167.306 277.604 164.687 278.073 158.75 277.99C158.115 277.981 157.51 277.974 156.934 277.968C147.362 277.869 145.815 277.852 149.788 266.96C154.832 252.058 158.747 241.815 163.443 229.529C165.348 224.544 167.382 219.221 169.672 213.115C172.673 223.478 173.252 226.525 173.738 229.087C174.031 230.631 174.291 231.999 175.028 234.686C175.645 236.938 176.335 239.724 177.051 242.616C179.037 250.637 181.225 259.475 182.634 260.01C182.634 260.01 186.447 258.37 180.146 267.128C179.311 268.288 178.67 269.229 178.137 270.012Z" fill="url(#paint1_linear_5_207)"/>
<path d="M177.916 74.0685C180.292 72.0788 178.863 71.4922 174.905 71.7365C169.583 72.0649 168.716 72.0124 168.845 72.6728C169.018 73.2539 169.819 75.1476 170.916 75.4235C175.399 76.5505 175.716 75.8875 177.916 74.0685Z" fill="url(#paint2_linear_5_207)"/>
<path d="M66.807 74.1799C64.6406 72.1902 65.9435 71.6036 69.5534 71.8479C74.4062 72.1763 75.1968 72.1238 75.0786 72.7842C74.9209 73.3653 74.1907 75.259 73.1901 75.5349C69.1022 76.6619 68.8134 75.9989 66.807 74.1799Z" fill="url(#paint3_linear_5_207)"/>
<path d="M128.891 114.73C128.426 115.251 126.74 117.11 125.298 117.625C123.717 118.189 121.821 118.1 120.27 117.649C118.514 117.138 116.929 115.445 116.312 114.615C112.937 109.654 119.216 112.28 122.587 112.243C125.957 112.206 132.001 109.595 128.891 114.73Z" fill="url(#paint4_linear_5_207)"/>
<defs>
<radialGradient id="paint0_radial_5_207" cx="0" cy="0" r="1" gradientUnits="userSpaceOnUse" gradientTransform="translate(138.167 137.892) rotate(-85.2528) scale(134.57 352.167)">
<stop/>
<stop offset="1" stop-color="#3D38AC"/>
</radialGradient>
<linearGradient id="paint1_linear_5_207" x1="121.456" y1="75.6744" x2="121.456" y2="285.703" gradientUnits="userSpaceOnUse">
<stop stop-color="#784DD6"/>
<stop offset="1" stop-color="#002DA0"/>
</linearGradient>
<linearGradient id="paint2_linear_5_207" x1="173.952" y1="71.6843" x2="173.952" y2="75.9773" gradientUnits="userSpaceOnUse">
<stop stop-color="#3D38AC"/>
<stop offset="1"/>
</linearGradient>
<linearGradient id="paint3_linear_5_207" x1="70.4217" y1="71.7957" x2="70.4217" y2="76.0887" gradientUnits="userSpaceOnUse">
<stop stop-color="#3D38AC"/>
<stop offset="1"/>
</linearGradient>
<linearGradient id="paint4_linear_5_207" x1="122.549" y1="111.547" x2="122.549" y2="118.018" gradientUnits="userSpaceOnUse">
<stop stop-color="#3D38AC"/>
<stop offset="1"/>
</linearGradient>
</defs>
</svg>
