<svg width="400" height="400" viewBox="0 0 400 400" fill="none" xmlns="http://www.w3.org/2000/svg">
<g clip-path="url(#clip0_7_2003)">
<path d="M329.243 113.732C329.243 113.732 323.68 87.0758 314.063 79.5132C308.263 74.9523 138.458 72.0739 94.4298 78.789C86.5444 79.9916 79.6819 104.629 79.1826 105.642C85.5698 146.42 103.347 198.646 133.141 213.302C155.51 224.307 187.761 230.97 212.939 229.317C244.327 227.257 267.357 212.564 287.407 195.686C316.179 171.466 329.243 113.732 329.243 113.732ZM156.583 373.72C146.326 347.194 125.931 297.532 124.84 296.428C123.2 294.767 122.386 300.203 119.836 329.838C117.128 361.325 116.885 362.737 114.194 362.737C110.687 362.737 111.901 367.335 117.156 373.949C125.589 384.563 135.329 389.216 149.258 389.282C165.554 389.872 161.012 385.723 156.583 373.72ZM269.888 386.029C277.36 382.549 276.366 382.151 282.256 373.966C291.087 361.693 285.743 363.991 285.743 363.991C283.057 362.97 278.349 340.412 275.083 328.499C272.338 318.485 274.319 321.546 267.577 298.267C256.459 327.912 249.649 344.37 239.709 373.731C233.805 389.916 236.598 388.967 252.269 389.189C260.591 389.307 264.261 388.649 269.888 386.029Z" fill="#E5DDD9"/>
<path d="M84.0879 67.661C84.0879 75.3776 95.7318 83.3128 114.921 88.6735C123.321 91.0201 134.548 90.9029 177.288 88.0227C202.341 86.3345 237.342 87.0056 262.08 89.6485C274.424 90.9673 278.498 90.8666 287.355 89.0234C300.285 86.3328 312.492 81.8716 317.323 78.071C325.971 71.2686 319.251 55.3068 299.335 35.3476C281.132 17.1055 250.512 3.38198 221.436 0.434112C199.699 -1.76967 171.685 4.56092 151.856 16.1578C146.862 19.0788 140.775 22.5655 138.329 23.9062C135.884 25.2468 130.456 29.3462 126.268 33.016C117.178 40.9812 113.129 43.7628 100.285 50.865C88.219 57.5368 84.0879 61.8208 84.0879 67.661Z" fill="#16131A"/>
<path fill-rule="evenodd" clip-rule="evenodd" d="M102.351 385.934C105.613 391.212 116.351 397.117 126.196 399.047C137.192 400.989 203.207 401.382 184.985 385.904C176.483 383.396 176.027 382.472 181.468 378.78C183.898 377.131 186.277 374.756 188.855 372.182C191.011 370.031 193.305 367.74 195.885 365.619C196.249 365.319 196.579 365.041 196.88 364.786C199.994 362.151 200.158 362.013 205.532 366.995C209.268 370.458 214.06 374.634 216.18 376.275C216.866 377.138 217.492 377.874 218.032 378.51C221.173 382.207 221.447 382.529 214.277 384.726C197.699 395.714 239.56 399.99 250.221 399.368C261.434 399.28 276.115 396.848 286.544 388.853C288.225 387.09 298.66 372.187 300.663 365.766C300.709 365.618 300.754 365.471 300.798 365.327C301.934 361.623 302.611 359.414 317.496 355.657C338.24 350.421 344.947 348.462 352.32 340.302C359.088 332.81 362.108 325.598 365.908 307.847C368.543 295.542 369.364 274.945 368.653 259.318C366.556 222.852 355.784 192.133 344.311 159.416C339.192 144.815 333.932 129.817 329.242 113.732C329.242 113.732 316.178 171.466 287.406 195.686C267.356 212.564 244.326 227.257 212.938 229.317C187.76 230.97 155.509 224.307 133.14 213.303C103.346 198.646 85.5689 146.42 79.1817 105.642C78.4026 107.684 77.644 109.669 76.901 111.614C72.3669 123.481 68.4088 133.841 63.8737 146.203C61.1935 153.685 58.6533 160.554 56.2511 167.05C44.9378 197.643 36.6856 219.958 31.2892 259.025C29.8395 283.118 36.9536 308.765 50.0033 326.491C63.4247 344.723 70.7994 351.049 86.2107 357.548L94.2984 360.958L96.8733 371.097C98.2895 376.674 100.755 383.351 102.351 385.934ZM124.839 296.428C125.93 297.532 146.325 347.194 156.582 373.721C157.247 375.524 157.915 377.15 158.515 378.609C161.905 386.863 163.105 389.783 149.257 389.283C135.328 389.216 125.588 384.564 117.155 373.949C111.9 367.335 110.686 362.737 114.193 362.737C116.884 362.737 117.127 361.325 119.835 329.838C122.385 300.204 123.199 294.767 124.839 296.428ZM279.439 378.008C276.426 382.431 275.875 383.241 269.887 386.029C264.26 388.649 260.59 389.307 252.268 389.189C251.379 389.177 250.531 389.168 249.723 389.159C236.308 389.02 234.14 388.997 239.708 373.731C246.778 352.846 252.265 338.49 258.845 321.272C261.516 314.284 264.367 306.825 267.577 298.267C271.782 312.79 272.593 317.062 273.275 320.651C273.686 322.816 274.05 324.733 275.082 328.499C275.948 331.656 276.914 335.56 277.918 339.613C280.701 350.855 283.768 363.241 285.742 363.991C285.742 363.991 291.086 361.693 282.255 373.966C281.085 375.592 280.186 376.911 279.439 378.008Z" fill="#16131A"/>
<path d="M279.131 103.392C282.46 100.603 280.458 99.7808 274.909 100.123C267.451 100.583 266.236 100.51 266.417 101.435C266.66 102.25 267.782 104.904 269.32 105.291C275.603 106.87 276.047 105.941 279.131 103.392Z" fill="#16131A"/>
<path d="M123.409 103.548C120.373 100.759 122.199 99.9369 127.259 100.279C134.06 100.74 135.168 100.666 135.002 101.592C134.781 102.406 133.758 105.06 132.356 105.447C126.626 107.026 126.221 106.097 123.409 103.548Z" fill="#16131A"/>
<path d="M210.421 160.38C209.769 161.109 207.406 163.715 205.386 164.436C203.169 165.226 200.512 165.103 198.339 164.47C195.878 163.753 193.655 161.382 192.791 160.218C188.06 153.265 196.861 156.946 201.585 156.894C206.309 156.842 214.78 153.183 210.421 160.38Z" fill="#16131A"/>
</g>
<defs>
<clipPath id="clip0_7_2003">
<rect width="400" height="400" fill="white"/>
</clipPath>
</defs>
</svg>
